STARTFONT 2.1
FONT -misc-spleen-medium-r-normal--16-160-72-72-C-80-ISO10646-1
SIZE 16 72 72
FONTBOUNDINGBOX 8 16 0 -4
COMMENT "Generated by fontforge, http://fontforge.sourceforge.net"
COMMENT "/*"
COMMENT "* Spleen 8x16 2.0.0"
COMMENT "* Copyright (c) 2018-2023, Frederic Cambus"
COMMENT "* https://www.cambus.net/"
COMMENT "*"
COMMENT "* Created:      2018-08-11"
COMMENT "* Last Updated: 2023-05-26"
COMMENT "*"
COMMENT "* Spleen is released under the BSD 2-Clause license."
COMMENT "* See LICENSE file for details."
COMMENT "*"
COMMENT "* SPDX-License-Identifier: BSD-2-Clause"
COMMENT "*/"
STARTPROPERTIES 20
FAMILY_NAME "Spleen"
WEIGHT_NAME "Medium"
FONT_VERSION "2.0.0"
FOUNDRY "misc"
SLANT "R"
SETWIDTH_NAME "Normal"
PIXEL_SIZE 16
POINT_SIZE 160
RESOLUTION_X 72
RESOLUTION_Y 72
SPACING "C"
AVERAGE_WIDTH 80
CHARSET_REGISTRY "ISO10646"
CHARSET_ENCODING "1"
MIN_SPACE 8
FONT_ASCENT 12
FONT_DESCENT 4
COPYRIGHT "Copyright (c) 2018-2023, Frederic Cambus"
DEFAULT_CHAR 32
_GBDFED_INFO "Edited with gbdfed 1.6."
ENDPROPERTIES
CHARS 144
STARTCHAR SPACE
ENCODING 32
SWIDTH 500 0
DWIDTH 8 0
BBX 1 1 7 -4
BITMAP
00
ENDCHAR
STARTCHAR EXCLAMATION
ENCODING 33
SWIDTH 500 0
DWIDTH 8 0
BBX 2 10 3 0
BITMAP
C0
C0
C0
C0
C0
C0
C0
00
C0
C0
ENDCHAR
STARTCHAR QUOTATION
ENCODING 34
SWIDTH 500 0
DWIDTH 8 0
BBX 6 4 1 7
BITMAP
CC
CC
CC
CC
ENDCHAR
STARTCHAR NUMBER
ENCODING 35
SWIDTH 500 0
DWIDTH 8 0
BBX 7 10 0 0
BITMAP
6C
6C
FE
6C
6C
6C
6C
FE
6C
6C
ENDCHAR
STARTCHAR DOLLAR
ENCODING 36
SWIDTH 500 0
DWIDTH 8 0
BBX 7 12 0 -1
BITMAP
10
7E
D0
D0
D0
7C
16
16
16
16
FC
10
ENDCHAR
STARTCHAR PERCENT
ENCODING 37
SWIDTH 500 0
DWIDTH 8 0
BBX 6 10 1 0
BITMAP
0C
CC
D8
18
30
30
60
6C
CC
C0
ENDCHAR
STARTCHAR AMPERSAND
ENCODING 38
SWIDTH 500 0
DWIDTH 8 0
BBX 7 10 0 0
BITMAP
38
6C
6C
6C
38
70
DA
CC
CC
7A
ENDCHAR
STARTCHAR APOSTROPHE
ENCODING 39
SWIDTH 500 0
DWIDTH 8 0
BBX 2 4 3 7
BITMAP
C0
C0
C0
C0
ENDCHAR
STARTCHAR LEFT
ENCODING 40
SWIDTH 500 0
DWIDTH 8 0
BBX 6 12 1 -1
BITMAP
1C
30
60
60
C0
C0
C0
C0
60
60
30
1C
ENDCHAR
STARTCHAR RIGHT
ENCODING 41
SWIDTH 500 0
DWIDTH 8 0
BBX 6 12 1 -1
BITMAP
E0
30
18
18
0C
0C
0C
0C
18
18
30
E0
ENDCHAR
STARTCHAR ASTERISK
ENCODING 42
SWIDTH 500 0
DWIDTH 8 0
BBX 8 7 0 1
BITMAP
66
3C
18
FF
18
3C
66
ENDCHAR
STARTCHAR PLUS
ENCODING 43
SWIDTH 500 0
DWIDTH 8 0
BBX 6 5 1 2
BITMAP
30
30
FC
30
30
ENDCHAR
STARTCHAR COMMA
ENCODING 44
SWIDTH 500 0
DWIDTH 8 0
BBX 3 3 2 -1
BITMAP
60
60
C0
ENDCHAR
STARTCHAR HYPHEN-MINUS
ENCODING 45
SWIDTH 500 0
DWIDTH 8 0
BBX 6 1 1 4
BITMAP
FC
ENDCHAR
STARTCHAR FULL
ENCODING 46
SWIDTH 500 0
DWIDTH 8 0
BBX 2 2 3 0
BITMAP
C0
C0
ENDCHAR
STARTCHAR SOLIDUS
ENCODING 47
SWIDTH 500 0
DWIDTH 8 0
BBX 7 12 0 -1
BITMAP
06
06
0C
0C
18
18
30
30
60
60
C0
C0
ENDCHAR
STARTCHAR DIGIT
ENCODING 48
SWIDTH 500 0
DWIDTH 8 0
BBX 7 10 0 0
BITMAP
7C
C6
C6
CE
DE
F6
E6
C6
C6
7C
ENDCHAR
STARTCHAR DIGIT
ENCODING 49
SWIDTH 500 0
DWIDTH 8 0
BBX 6 10 1 0
BITMAP
30
70
F0
B0
30
30
30
30
30
FC
ENDCHAR
STARTCHAR DIGIT
ENCODING 50
SWIDTH 500 0
DWIDTH 8 0
BBX 7 10 0 0
BITMAP
7C
C6
06
06
0C
18
30
60
C6
FE
ENDCHAR
STARTCHAR DIGIT
ENCODING 51
SWIDTH 500 0
DWIDTH 8 0
BBX 7 10 0 0
BITMAP
7C
C6
06
06
3C
06
06
06
C6
7C
ENDCHAR
STARTCHAR DIGIT
ENCODING 52
SWIDTH 500 0
DWIDTH 8 0
BBX 7 10 0 0
BITMAP
C0
C0
CC
CC
CC
CC
FE
0C
0C
0C
ENDCHAR
STARTCHAR DIGIT
ENCODING 53
SWIDTH 500 0
DWIDTH 8 0
BBX 7 10 0 0
BITMAP
FE
C6
C0
C0
FC
06
06
06
C6
7C
ENDCHAR
STARTCHAR DIGIT
ENCODING 54
SWIDTH 500 0
DWIDTH 8 0
BBX 7 10 0 0
BITMAP
7C
C6
C0
C0
FC
C6
C6
C6
C6
7C
ENDCHAR
STARTCHAR DIGIT
ENCODING 55
SWIDTH 500 0
DWIDTH 8 0
BBX 7 10 0 0
BITMAP
FE
C6
06
06
0C
18
30
30
30
30
ENDCHAR
STARTCHAR DIGIT
ENCODING 56
SWIDTH 500 0
DWIDTH 8 0
BBX 7 10 0 0
BITMAP
7C
C6
C6
C6
7C
C6
C6
C6
C6
7C
ENDCHAR
STARTCHAR DIGIT
ENCODING 57
SWIDTH 500 0
DWIDTH 8 0
BBX 7 10 0 0
BITMAP
7C
C6
C6
C6
C6
7E
06
06
C6
7C
ENDCHAR
STARTCHAR COLON
ENCODING 58
SWIDTH 500 0
DWIDTH 8 0
BBX 2 7 3 0
BITMAP
C0
C0
00
00
00
C0
C0
ENDCHAR
STARTCHAR SEMICOLON
ENCODING 59
SWIDTH 500 0
DWIDTH 8 0
BBX 3 8 2 -1
BITMAP
60
60
00
00
00
60
60
C0
ENDCHAR
STARTCHAR LESS-THAN
ENCODING 60
SWIDTH 500 0
DWIDTH 8 0
BBX 6 10 1 0
BITMAP
0C
18
30
60
C0
C0
60
30
18
0C
ENDCHAR
STARTCHAR EQUALS
ENCODING 61
SWIDTH 500 0
DWIDTH 8 0
BBX 6 4 1 3
BITMAP
FC
00
00
FC
ENDCHAR
STARTCHAR GREATER-THAN
ENCODING 62
SWIDTH 500 0
DWIDTH 8 0
BBX 6 10 1 0
BITMAP
C0
60
30
18
0C
0C
18
30
60
C0
ENDCHAR
STARTCHAR QUESTION
ENCODING 63
SWIDTH 500 0
DWIDTH 8 0
BBX 7 10 0 0
BITMAP
7C
C6
06
0C
18
30
30
00
30
30
ENDCHAR
STARTCHAR COMMERCIAL
ENCODING 64
SWIDTH 500 0
DWIDTH 8 0
BBX 7 9 0 0
BITMAP
7C
C2
DA
DA
DA
DA
DE
C0
7C
ENDCHAR
STARTCHAR LATIN
ENCODING 65
SWIDTH 500 0
DWIDTH 8 0
BBX 7 10 0 0
BITMAP
7C
C6
C6
C6
FE
C6
C6
C6
C6
C6
ENDCHAR
STARTCHAR LATIN
ENCODING 66
SWIDTH 500 0
DWIDTH 8 0
BBX 7 10 0 0
BITMAP
FC
C6
C6
C6
FC
C6
C6
C6
C6
FC
ENDCHAR
STARTCHAR LATIN
ENCODING 67
SWIDTH 500 0
DWIDTH 8 0
BBX 7 10 0 0
BITMAP
7E
C0
C0
C0
C0
C0
C0
C0
C0
7E
ENDCHAR
STARTCHAR LATIN
ENCODING 68
SWIDTH 500 0
DWIDTH 8 0
BBX 7 10 0 0
BITMAP
FC
C6
C6
C6
C6
C6
C6
C6
C6
FC
ENDCHAR
STARTCHAR LATIN
ENCODING 69
SWIDTH 500 0
DWIDTH 8 0
BBX 7 10 0 0
BITMAP
7E
C0
C0
C0
F8
C0
C0
C0
C0
7E
ENDCHAR
STARTCHAR LATIN
ENCODING 70
SWIDTH 500 0
DWIDTH 8 0
BBX 7 10 0 0
BITMAP
7E
C0
C0
C0
F8
C0
C0
C0
C0
C0
ENDCHAR
STARTCHAR LATIN
ENCODING 71
SWIDTH 500 0
DWIDTH 8 0
BBX 7 10 0 0
BITMAP
7E
C0
C0
C0
DE
C6
C6
C6
C6
7E
ENDCHAR
STARTCHAR LATIN
ENCODING 72
SWIDTH 500 0
DWIDTH 8 0
BBX 7 10 0 0
BITMAP
C6
C6
C6
C6
FE
C6
C6
C6
C6
C6
ENDCHAR
STARTCHAR LATIN
ENCODING 73
SWIDTH 500 0
DWIDTH 8 0
BBX 6 10 1 0
BITMAP
FC
30
30
30
30
30
30
30
30
FC
ENDCHAR
STARTCHAR LATIN
ENCODING 74
SWIDTH 500 0
DWIDTH 8 0
BBX 7 10 0 0
BITMAP
7E
18
18
18
18
18
18
18
18
F0
ENDCHAR
STARTCHAR LATIN
ENCODING 75
SWIDTH 500 0
DWIDTH 8 0
BBX 7 10 0 0
BITMAP
C6
C6
C6
CC
F8
CC
C6
C6
C6
C6
ENDCHAR
STARTCHAR LATIN
ENCODING 76
SWIDTH 500 0
DWIDTH 8 0
BBX 7 10 0 0
BITMAP
C0
C0
C0
C0
C0
C0
C0
C0
C0
7E
ENDCHAR
STARTCHAR LATIN
ENCODING 77
SWIDTH 500 0
DWIDTH 8 0
BBX 7 10 0 0
BITMAP
C6
EE
FE
D6
C6
C6
C6
C6
C6
C6
ENDCHAR
STARTCHAR LATIN
ENCODING 78
SWIDTH 500 0
DWIDTH 8 0
BBX 7 10 0 0
BITMAP
C6
C6
E6
E6
D6
D6
CE
CE
C6
C6
ENDCHAR
STARTCHAR LATIN
ENCODING 79
SWIDTH 500 0
DWIDTH 8 0
BBX 7 10 0 0
BITMAP
7C
C6
C6
C6
C6
C6
C6
C6
C6
7C
ENDCHAR
STARTCHAR LATIN
ENCODING 80
SWIDTH 500 0
DWIDTH 8 0
BBX 7 10 0 0
BITMAP
FC
C6
C6
C6
FC
C0
C0
C0
C0
C0
ENDCHAR
STARTCHAR LATIN
ENCODING 81
SWIDTH 500 0
DWIDTH 8 0
BBX 7 12 0 -2
BITMAP
7C
C6
C6
C6
C6
C6
C6
D6
D6
7C
18
0C
ENDCHAR
STARTCHAR LATIN
ENCODING 82
SWIDTH 500 0
DWIDTH 8 0
BBX 7 10 0 0
BITMAP
FC
C6
C6
C6
FC
C6
C6
C6
C6
C6
ENDCHAR
STARTCHAR LATIN
ENCODING 83
SWIDTH 500 0
DWIDTH 8 0
BBX 7 10 0 0
BITMAP
7E
C0
C0
C0
7C
06
06
06
06
FC
ENDCHAR
STARTCHAR LATIN
ENCODING 84
SWIDTH 500 0
DWIDTH 8 0
BBX 8 10 0 0
BITMAP
FF
18
18
18
18
18
18
18
18
18
ENDCHAR
STARTCHAR LATIN
ENCODING 85
SWIDTH 500 0
DWIDTH 8 0
BBX 7 10 0 0
BITMAP
C6
C6
C6
C6
C6
C6
C6
C6
C6
7E
ENDCHAR
STARTCHAR LATIN
ENCODING 86
SWIDTH 500 0
DWIDTH 8 0
BBX 7 10 0 0
BITMAP
C6
C6
C6
C6
C6
C6
C6
6C
38
10
ENDCHAR
STARTCHAR LATIN
ENCODING 87
SWIDTH 500 0
DWIDTH 8 0
BBX 7 10 0 0
BITMAP
C6
C6
C6
C6
C6
C6
D6
FE
EE
C6
ENDCHAR
STARTCHAR LATIN
ENCODING 88
SWIDTH 500 0
DWIDTH 8 0
BBX 7 10 0 0
BITMAP
C6
C6
C6
6C
38
6C
C6
C6
C6
C6
ENDCHAR
STARTCHAR LATIN
ENCODING 89
SWIDTH 500 0
DWIDTH 8 0
BBX 7 10 0 0
BITMAP
C6
C6
C6
C6
7E
06
06
06
06
FC
ENDCHAR
STARTCHAR LATIN
ENCODING 90
SWIDTH 500 0
DWIDTH 8 0
BBX 7 10 0 0
BITMAP
FE
06
06
0C
18
30
60
C0
C0
FE
ENDCHAR
STARTCHAR LEFT
ENCODING 91
SWIDTH 500 0
DWIDTH 8 0
BBX 5 12 2 -1
BITMAP
F8
C0
C0
C0
C0
C0
C0
C0
C0
C0
C0
F8
ENDCHAR
STARTCHAR REVERSE
ENCODING 92
SWIDTH 500 0
DWIDTH 8 0
BBX 7 12 0 -1
BITMAP
C0
C0
60
60
30
30
18
18
0C
0C
06
06
ENDCHAR
STARTCHAR RIGHT
ENCODING 93
SWIDTH 500 0
DWIDTH 8 0
BBX 5 12 1 -1
BITMAP
F8
18
18
18
18
18
18
18
18
18
18
F8
ENDCHAR
STARTCHAR CIRCUMFLEX
ENCODING 94
SWIDTH 500 0
DWIDTH 8 0
BBX 7 4 0 7
BITMAP
10
38
6C
C6
ENDCHAR
STARTCHAR LOW
ENCODING 95
SWIDTH 500 0
DWIDTH 8 0
BBX 7 1 0 -3
BITMAP
FE
ENDCHAR
STARTCHAR GRAVE
ENCODING 96
SWIDTH 500 0
DWIDTH 8 0
BBX 4 3 2 8
BITMAP
C0
60
30
ENDCHAR
STARTCHAR LATIN
ENCODING 97
SWIDTH 500 0
DWIDTH 8 0
BBX 7 7 0 0
BITMAP
7C
06
7E
C6
C6
C6
7E
ENDCHAR
STARTCHAR LATIN
ENCODING 98
SWIDTH 500 0
DWIDTH 8 0
BBX 7 10 0 0
BITMAP
C0
C0
C0
FC
C6
C6
C6
C6
C6
FC
ENDCHAR
STARTCHAR LATIN
ENCODING 99
SWIDTH 500 0
DWIDTH 8 0
BBX 7 7 0 0
BITMAP
7E
C0
C0
C0
C0
C0
7E
ENDCHAR
STARTCHAR LATIN
ENCODING 100
SWIDTH 500 0
DWIDTH 8 0
BBX 7 10 0 0
BITMAP
06
06
06
7E
C6
C6
C6
C6
C6
7E
ENDCHAR
STARTCHAR LATIN
ENCODING 101
SWIDTH 500 0
DWIDTH 8 0
BBX 7 7 0 0
BITMAP
7E
C6
C6
FE
C0
C0
7E
ENDCHAR
STARTCHAR LATIN
ENCODING 102
SWIDTH 500 0
DWIDTH 8 0
BBX 6 10 1 0
BITMAP
3C
60
60
60
F8
60
60
60
60
60
ENDCHAR
STARTCHAR LATIN
ENCODING 103
SWIDTH 500 0
DWIDTH 8 0
BBX 7 10 0 -3
BITMAP
7E
C6
C6
C6
C6
C6
7C
06
06
FC
ENDCHAR
STARTCHAR LATIN
ENCODING 104
SWIDTH 500 0
DWIDTH 8 0
BBX 7 10 0 0
BITMAP
C0
C0
C0
FC
C6
C6
C6
C6
C6
C6
ENDCHAR
STARTCHAR LATIN
ENCODING 105
SWIDTH 500 0
DWIDTH 8 0
BBX 4 10 2 0
BITMAP
60
60
00
E0
60
60
60
60
60
70
ENDCHAR
STARTCHAR LATIN
ENCODING 106
SWIDTH 500 0
DWIDTH 8 0
BBX 4 13 1 -3
BITMAP
30
30
00
30
30
30
30
30
30
30
30
30
E0
ENDCHAR
STARTCHAR LATIN
ENCODING 107
SWIDTH 500 0
DWIDTH 8 0
BBX 7 10 0 0
BITMAP
C0
C0
C0
CC
D8
F0
F0
D8
CC
C6
ENDCHAR
STARTCHAR LATIN
ENCODING 108
SWIDTH 500 0
DWIDTH 8 0
BBX 4 10 2 0
BITMAP
C0
C0
C0
C0
C0
C0
C0
C0
C0
70
ENDCHAR
STARTCHAR LATIN
ENCODING 109
SWIDTH 500 0
DWIDTH 8 0
BBX 7 7 0 0
BITMAP
EC
D6
D6
D6
D6
C6
C6
ENDCHAR
STARTCHAR LATIN
ENCODING 110
SWIDTH 500 0
DWIDTH 8 0
BBX 7 7 0 0
BITMAP
FC
C6
C6
C6
C6
C6
C6
ENDCHAR
STARTCHAR LATIN
ENCODING 111
SWIDTH 500 0
DWIDTH 8 0
BBX 7 7 0 0
BITMAP
7C
C6
C6
C6
C6
C6
7C
ENDCHAR
STARTCHAR LATIN
ENCODING 112
SWIDTH 500 0
DWIDTH 8 0
BBX 7 10 0 -3
BITMAP
FC
C6
C6
C6
C6
C6
FC
C0
C0
C0
ENDCHAR
STARTCHAR LATIN
ENCODING 113
SWIDTH 500 0
DWIDTH 8 0
BBX 7 10 0 -3
BITMAP
7E
C6
C6
C6
C6
C6
7E
06
06
06
ENDCHAR
STARTCHAR LATIN
ENCODING 114
SWIDTH 500 0
DWIDTH 8 0
BBX 7 7 0 0
BITMAP
7E
C6
C0
C0
C0
C0
C0
ENDCHAR
STARTCHAR LATIN
ENCODING 115
SWIDTH 500 0
DWIDTH 8 0
BBX 7 7 0 0
BITMAP
7E
C0
C0
7C
06
06
FC
ENDCHAR
STARTCHAR LATIN
ENCODING 116
SWIDTH 500 0
DWIDTH 8 0
BBX 6 10 1 0
BITMAP
60
60
60
F8
60
60
60
60
60
3C
ENDCHAR
STARTCHAR LATIN
ENCODING 117
SWIDTH 500 0
DWIDTH 8 0
BBX 7 7 0 0
BITMAP
C6
C6
C6
C6
C6
C6
7E
ENDCHAR
STARTCHAR LATIN
ENCODING 118
SWIDTH 500 0
DWIDTH 8 0
BBX 7 7 0 0
BITMAP
C6
C6
C6
C6
6C
38
10
ENDCHAR
STARTCHAR LATIN
ENCODING 119
SWIDTH 500 0
DWIDTH 8 0
BBX 7 7 0 0
BITMAP
C6
C6
D6
D6
D6
D6
6E
ENDCHAR
STARTCHAR LATIN
ENCODING 120
SWIDTH 500 0
DWIDTH 8 0
BBX 7 7 0 0
BITMAP
C6
6C
38
38
6C
C6
C6
ENDCHAR
STARTCHAR LATIN
ENCODING 121
SWIDTH 500 0
DWIDTH 8 0
BBX 7 10 0 -3
BITMAP
C6
C6
C6
C6
C6
C6
7E
06
06
FC
ENDCHAR
STARTCHAR LATIN
ENCODING 122
SWIDTH 500 0
DWIDTH 8 0
BBX 7 7 0 0
BITMAP
FE
06
0C
18
30
60
FE
ENDCHAR
STARTCHAR LEFT
ENCODING 123
SWIDTH 500 0
DWIDTH 8 0
BBX 6 12 1 -1
BITMAP
1C
30
30
30
30
E0
E0
30
30
30
30
1C
ENDCHAR
STARTCHAR VERTICAL
ENCODING 124
SWIDTH 500 0
DWIDTH 8 0
BBX 2 12 3 -1
BITMAP
C0
C0
C0
C0
C0
C0
C0
C0
C0
C0
C0
C0
ENDCHAR
STARTCHAR RIGHT
ENCODING 125
SWIDTH 500 0
DWIDTH 8 0
BBX 6 12 1 -1
BITMAP
E0
30
30
30
30
1C
1C
30
30
30
30
E0
ENDCHAR
STARTCHAR TILDE
ENCODING 126
SWIDTH 500 0
DWIDTH 8 0
BBX 6 3 1 3
BITMAP
64
FC
98
ENDCHAR
STARTCHAR control
ENCODING 127
SWIDTH 500 0
DWIDTH 8 0
BBX 1 1 7 -4
BITMAP
00
ENDCHAR
STARTCHAR NO-BREAK
ENCODING 160
SWIDTH 500 0
DWIDTH 8 0
BBX 1 1 7 -4
BITMAP
00
ENDCHAR
STARTCHAR SECTION
ENCODING 167
SWIDTH 500 0
DWIDTH 8 0
BBX 6 14 1 -3
BITMAP
78
CC
C0
60
78
CC
CC
CC
CC
78
18
0C
CC
78
ENDCHAR
STARTCHAR DEGREE
ENCODING 176
SWIDTH 500 0
DWIDTH 8 0
BBX 5 4 1 7
BITMAP
70
D8
D8
70
ENDCHAR
STARTCHAR LATIN
ENCODING 193
SWIDTH 500 0
DWIDTH 8 0
BBX 7 12 0 0
BITMAP
18
30
00
7C
C6
C6
C6
FE
C6
C6
C6
C6
ENDCHAR
STARTCHAR LATIN
ENCODING 201
SWIDTH 500 0
DWIDTH 8 0
BBX 7 12 0 0
BITMAP
18
30
00
7E
C0
C0
C0
F8
C0
C0
C0
7E
ENDCHAR
STARTCHAR LATIN
ENCODING 205
SWIDTH 500 0
DWIDTH 8 0
BBX 6 12 1 0
BITMAP
18
30
00
FC
30
30
30
30
30
30
30
FC
ENDCHAR
STARTCHAR LATIN
ENCODING 211
SWIDTH 500 0
DWIDTH 8 0
BBX 7 12 0 0
BITMAP
18
30
00
7C
C6
C6
C6
C6
C6
C6
C6
7C
ENDCHAR
STARTCHAR LATIN
ENCODING 218
SWIDTH 500 0
DWIDTH 8 0
BBX 7 12 0 0
BITMAP
18
30
00
C6
C6
C6
C6
C6
C6
C6
C6
7E
ENDCHAR
STARTCHAR LATIN
ENCODING 221
SWIDTH 500 0
DWIDTH 8 0
BBX 7 12 0 0
BITMAP
18
30
00
C6
C6
C6
C6
7E
06
06
06
FC
ENDCHAR
STARTCHAR LATIN
ENCODING 225
SWIDTH 500 0
DWIDTH 8 0
BBX 7 11 0 0
BITMAP
0C
18
30
00
7C
06
7E
C6
C6
C6
7E
ENDCHAR
STARTCHAR LATIN
ENCODING 233
SWIDTH 500 0
DWIDTH 8 0
BBX 7 11 0 0
BITMAP
0C
18
30
00
7E
C6
C6
FE
C0
C0
7E
ENDCHAR
STARTCHAR LATIN
ENCODING 237
SWIDTH 500 0
DWIDTH 8 0
BBX 4 11 2 0
BITMAP
30
60
C0
00
E0
60
60
60
60
60
70
ENDCHAR
STARTCHAR LATIN
ENCODING 243
SWIDTH 500 0
DWIDTH 8 0
BBX 7 11 0 0
BITMAP
0C
18
30
00
7C
C6
C6
C6
C6
C6
7C
ENDCHAR
STARTCHAR LATIN
ENCODING 250
SWIDTH 500 0
DWIDTH 8 0
BBX 7 11 0 0
BITMAP
0C
18
30
00
C6
C6
C6
C6
C6
C6
7E
ENDCHAR
STARTCHAR LATIN
ENCODING 253
SWIDTH 500 0
DWIDTH 8 0
BBX 7 14 0 -3
BITMAP
0C
18
30
00
C6
C6
C6
C6
C6
C6
7E
06
06
FC
ENDCHAR
STARTCHAR LATIN
ENCODING 263
SWIDTH 500 0
DWIDTH 8 0
BBX 7 11 0 0
BITMAP
0C
18
30
00
7E
C0
C0
C0
C0
C0
7E
ENDCHAR
STARTCHAR LATIN
ENCODING 264
SWIDTH 500 0
DWIDTH 8 0
BBX 7 12 0 0
BITMAP
38
6C
00
7E
C0
C0
C0
C0
C0
C0
C0
7E
ENDCHAR
STARTCHAR LATIN
ENCODING 265
SWIDTH 500 0
DWIDTH 8 0
BBX 7 11 0 0
BITMAP
10
38
6C
00
7E
C0
C0
C0
C0
C0
7E
ENDCHAR
STARTCHAR LATIN
ENCODING 266
SWIDTH 500 0
DWIDTH 8 0
BBX 7 12 0 0
BITMAP
18
18
00
7E
C0
C0
C0
C0
C0
C0
C0
7E
ENDCHAR
STARTCHAR LATIN
ENCODING 267
SWIDTH 500 0
DWIDTH 8 0
BBX 7 10 0 0
BITMAP
18
18
00
7E
C0
C0
C0
C0
C0
7E
ENDCHAR
STARTCHAR LATIN
ENCODING 268
SWIDTH 500 0
DWIDTH 8 0
BBX 7 12 0 0
BITMAP
6C
38
10
7E
C0
C0
C0
C0
C0
C0
C0
7E
ENDCHAR
STARTCHAR LATIN
ENCODING 269
SWIDTH 500 0
DWIDTH 8 0
BBX 7 11 0 0
BITMAP
6C
38
10
00
7E
C0
C0
C0
C0
C0
7E
ENDCHAR
STARTCHAR LATIN
ENCODING 270
SWIDTH 500 0
DWIDTH 8 0
BBX 7 12 0 0
BITMAP
6C
38
10
FC
C6
C6
C6
C6
C6
C6
C6
FC
ENDCHAR
STARTCHAR LATIN
ENCODING 271
SWIDTH 500 0
DWIDTH 8 0
BBX 7 12 0 0
BITMAP
6C
38
16
06
06
7E
C6
C6
C6
C6
C6
7E
ENDCHAR
STARTCHAR LATIN
ENCODING 272
SWIDTH 500 0
DWIDTH 8 0
BBX 7 10 0 0
BITMAP
7C
66
66
66
F6
66
66
66
66
7C
ENDCHAR
STARTCHAR LATIN
ENCODING 273
SWIDTH 500 0
DWIDTH 8 0
BBX 8 10 0 0
BITMAP
06
1F
06
7E
C6
C6
C6
C6
C6
7E
ENDCHAR
STARTCHAR LATIN
ENCODING 274
SWIDTH 500 0
DWIDTH 8 0
BBX 7 11 0 0
BITMAP
7C
00
7E
C0
C0
C0
F8
C0
C0
C0
7E
ENDCHAR
STARTCHAR LATIN
ENCODING 275
SWIDTH 500 0
DWIDTH 8 0
BBX 7 9 0 0
BITMAP
7C
00
7E
C6
C6
FE
C0
C0
7E
ENDCHAR
STARTCHAR LATIN
ENCODING 276
SWIDTH 500 0
DWIDTH 8 0
BBX 7 12 0 0
BITMAP
6C
38
00
7E
C0
C0
C0
F8
C0
C0
C0
7E
ENDCHAR
STARTCHAR LATIN
ENCODING 277
SWIDTH 500 0
DWIDTH 8 0
BBX 7 11 0 0
BITMAP
6C
6C
38
00
7E
C6
C6
FE
C0
C0
7E
ENDCHAR
STARTCHAR LATIN
ENCODING 278
SWIDTH 500 0
DWIDTH 8 0
BBX 7 12 0 0
BITMAP
18
18
00
7E
C0
C0
C0
F8
C0
C0
C0
7E
ENDCHAR
STARTCHAR LATIN
ENCODING 279
SWIDTH 500 0
DWIDTH 8 0
BBX 7 10 0 0
BITMAP
18
18
00
7E
C6
C6
FE
C0
C0
7E
ENDCHAR
STARTCHAR LATIN
ENCODING 280
SWIDTH 500 0
DWIDTH 8 0
BBX 7 13 0 -3
BITMAP
7E
C0
C0
C0
F8
C0
C0
C0
C0
7E
0C
08
06
ENDCHAR
STARTCHAR LATIN
ENCODING 281
SWIDTH 500 0
DWIDTH 8 0
BBX 7 10 0 -3
BITMAP
7E
C6
C6
FE
C0
C0
7E
0C
08
06
ENDCHAR
STARTCHAR LATIN
ENCODING 282
SWIDTH 500 0
DWIDTH 8 0
BBX 7 12 0 0
BITMAP
6C
38
10
7E
C0
C0
C0
F8
C0
C0
C0
7E
ENDCHAR
STARTCHAR LATIN
ENCODING 283
SWIDTH 500 0
DWIDTH 8 0
BBX 7 11 0 0
BITMAP
6C
38
10
00
7E
C6
C6
FE
C0
C0
7E
ENDCHAR
STARTCHAR LATIN
ENCODING 327
SWIDTH 500 0
DWIDTH 8 0
BBX 7 12 0 0
BITMAP
6C
38
10
C6
E6
E6
D6
D6
CE
CE
C6
C6
ENDCHAR
STARTCHAR LATIN
ENCODING 328
SWIDTH 500 0
DWIDTH 8 0
BBX 7 11 0 0
BITMAP
6C
38
10
00
FC
C6
C6
C6
C6
C6
C6
ENDCHAR
STARTCHAR LATIN
ENCODING 344
SWIDTH 500 0
DWIDTH 8 0
BBX 7 12 0 0
BITMAP
6C
38
10
FC
C6
C6
C6
FC
C6
C6
C6
C6
ENDCHAR
STARTCHAR LATIN
ENCODING 345
SWIDTH 500 0
DWIDTH 8 0
BBX 7 11 0 0
BITMAP
6C
38
10
00
7E
C6
C0
C0
C0
C0
C0
ENDCHAR
STARTCHAR LATIN
ENCODING 352
SWIDTH 500 0
DWIDTH 8 0
BBX 7 12 0 0
BITMAP
6C
38
10
7E
C0
C0
C0
7C
06
06
06
FC
ENDCHAR
STARTCHAR LATIN
ENCODING 353
SWIDTH 500 0
DWIDTH 8 0
BBX 7 11 0 0
BITMAP
6C
38
10
00
7E
C0
C0
7C
06
06
FC
ENDCHAR
STARTCHAR LATIN
ENCODING 356
SWIDTH 500 0
DWIDTH 8 0
BBX 8 12 0 0
BITMAP
6C
38
10
FF
18
18
18
18
18
18
18
18
ENDCHAR
STARTCHAR LATIN
ENCODING 357
SWIDTH 500 0
DWIDTH 8 0
BBX 6 12 1 0
BITMAP
D8
70
20
60
60
F8
60
60
60
60
60
3C
ENDCHAR
STARTCHAR LATIN
ENCODING 366
SWIDTH 500 0
DWIDTH 8 0
BBX 7 12 0 0
BITMAP
38
6C
38
C6
C6
C6
C6
C6
C6
C6
C6
7E
ENDCHAR
STARTCHAR LATIN
ENCODING 367
SWIDTH 500 0
DWIDTH 8 0
BBX 7 11 0 0
BITMAP
38
6C
38
00
C6
C6
C6
C6
C6
C6
7E
ENDCHAR
STARTCHAR LATIN
ENCODING 381
SWIDTH 500 0
DWIDTH 8 0
BBX 7 12 0 0
BITMAP
6C
38
10
FE
06
0C
18
30
60
C0
C0
FE
ENDCHAR
STARTCHAR LATIN
ENCODING 382
SWIDTH 500 0
DWIDTH 8 0
BBX 7 11 0 0
BITMAP
6C
38
10
00
FE
06
0C
18
30
60
FE
ENDCHAR
ENDFONT
